<svg xmlns="http://www.w3.org/2000/svg" xmlns:xlink="http://www.w3.org/1999/xlink" viewBox="0 0 56 56"><defs><style>.cls-1{fill:url(#linear-gradient);}.cls-2{fill:#fff;}.cls-3{fill:#94c7f2;}.cls-4{fill:#233253;}.cls-5{fill:#ec1e27;}.cls-6{fill:#69d2ff;}</style><linearGradient id="linear-gradient" x1="656.06" y1="792" x2="656.06" y2="736" gradientTransform="matrix(-1, 0, 0, 1, 684.06, -736)" gradientUnits="userSpaceOnUse"><stop offset="0" stop-color="#edf8ff"/><stop offset="1" stop-color="#edf8ff" stop-opacity="0"/></linearGradient></defs><g id="Layer_2" data-name="Layer 2"><g id="Layer_1-2" data-name="Layer 1"><circle class="cls-1" cx="28" cy="28" r="28"/><ellipse class="cls-2" cx="27.8" cy="38.9" rx="6.4" ry="6.6"/><path class="cls-3" d="M35.9,19.8a8.3,8.3,0,0,1-2.4,5.9,8.1,8.1,0,0,1-5.7,2.5,8.2,8.2,0,0,1,8.1-8.4Z"/><path class="cls-3" d="M19.6,19.8A8.3,8.3,0,0,0,22,25.7a8.2,8.2,0,0,0,5.8,2.5,8.3,8.3,0,0,0-8.2-8.4Z"/><path class="cls-4" d="M28.2,29.5v-.8a8.4,8.4,0,0,0,5.7-2.6,9.1,9.1,0,0,0,2.5-6.3.6.6,0,0,0-.5-.6,8.8,8.8,0,0,0-7.7,4.7v-3a3.4,3.4,0,0,0,2.9-3.4c0-1.9-1.5-8.6-3.3-8.6s-3.5,6.7-3.5,8.6a3.4,3.4,0,0,0,2.9,3.4v3a8.7,8.7,0,0,0-7.6-4.7h0a.6.6,0,0,0-.6.6,8.9,8.9,0,0,0,2.6,6.3,9.1,9.1,0,0,0,5.6,2.6v.8a9.4,9.4,0,0,0-8.5,8.2.6.6,0,0,0,1.1.1,8.1,8.1,0,0,1,7.9-7.2h0a8.3,8.3,0,0,1,0,16.5,8.2,8.2,0,0,1-7.9-6.6.4.4,0,0,0-.6-.4c-.3,0-.4.3-.4.6a9.1,9.1,0,0,0,18-1.8A9.3,9.3,0,0,0,28.2,29.5Zm-5.9-4.2a7.7,7.7,0,0,1-2.2-5,7.8,7.8,0,0,1,7.1,7.3A7.1,7.1,0,0,1,22.3,25.3Zm13-5a7.7,7.7,0,0,1-2.2,5,7.1,7.1,0,0,1-4.8,2.3A7.7,7.7,0,0,1,35.3,20.3Zm-9.1-3.1c0-1.3.3-7.6,1.6-7.6s.5,6,.5,7.4.6,2.6-.7,2.6S26.2,18.6,26.2,17.2Z"/><path class="cls-5" d="M19.2,39.7a.5.5,0,0,0,.5-.5.6.6,0,0,0-.5-.6h0a.5.5,0,0,0-.4.2c-.1.1-.2.2-.1.4a.5.5,0,0,0,.5.5Z"/><path class="cls-6" d="M27.7,46a7.1,7.1,0,1,0-6.9-7.1A7,7,0,0,0,27.7,46Zm0-13.1a6,6,0,0,1,0,12,6,6,0,0,1,0-12Z"/><path class="cls-5" d="M25,40v-.7h.8a2.3,2.3,0,0,0,1.3-.3,2.1,2.1,0,0,0,.6-1H25v-.5h2.6a.7.7,0,0,0-.6-.7,2.2,2.2,0,0,0-1.2-.2H25v-.8h4.4v.5H27.7c.3.1.4.3.6.5l.3.7h.8V38h-.8a1.9,1.9,0,0,1-.5,1.3,3.2,3.2,0,0,1-1.3.7L29,42.9H27.9l-2-2.9Z"/><path class="cls-3" d="M27.8,9a8.6,8.6,0,0,0,0,11.9A8.8,8.8,0,0,0,27.8,9Z"/></g></g></svg>